<svg xmlns="http://www.w3.org/2000/svg" width="24" height="24" fill="none" id="email">
    <path fill="#ffffff" fill-rule="evenodd" d="M2 6.75A2.75 2.75 0 0 1 4.75 4h14.5A2.75 2.75 0 0 1 22 6.75v10.5A2.75 2.75 0 0 1 19.25 20H4.75A2.75 2.75 0 0 1 2 17.25V6.75Zm2.75-1.25A1.25 1.25 0 0 0 3.5 6.75v.619l8 4.75 8-4.75v-.619a1.25 1.25 0 0 0-1.25-1.25H4.75Zm16 4.682-7.682 4.55a2.75 2.75 0 0 1-2.136 0L3.5 10.182V17.25a1.25 1.25 0 0 0 1.25 1.25h14.5a1.25 1.25 0 0 0 1.25-1.25V10.182Z" clip-rule="evenodd"></path>
</svg>
